<svg width="40" height="34" viewBox="0 0 40 34" fill="none" xmlns="http://www.w3.org/2000/svg">
<path d="M2 6.50018H23.2578C23.5682 7.37723 24.1428 8.13651 24.9025 8.67353C25.6622 9.21055 26.5697 9.4989 27.5 9.4989C28.4303 9.4989 29.3378 9.21055 30.0975 8.67353C30.8572 8.13651 31.4318 7.37723 31.7422 6.50018H38C38.3978 6.50018 38.7794 6.34215 39.0607 6.06084C39.342 5.77954 39.5 5.39801 39.5 5.00018C39.5 4.60236 39.342 4.22083 39.0607 3.93952C38.7794 3.65822 38.3978 3.50018 38 3.50018H31.7422C31.4318 2.62314 30.8572 1.86386 30.0975 1.32684C29.3378 0.789818 28.4303 0.501465 27.5 0.501465C26.5697 0.501465 25.6622 0.789818 24.9025 1.32684C24.1428 1.86386 23.5682 2.62314 23.2578 3.50018H2C1.60218 3.50018 1.22064 3.65822 0.93934 3.93952C0.658035 4.22083 0.5 4.60236 0.5 5.00018C0.5 5.39801 0.658035 5.77954 0.93934 6.06084C1.22064 6.34215 1.60218 6.50018 2 6.50018ZM38 27.5002H31.7422C31.4318 26.6231 30.8572 25.8639 30.0975 25.3268C29.3378 24.7898 28.4303 24.5015 27.5 24.5015C26.5697 24.5015 25.6622 24.7898 24.9025 25.3268C24.1428 25.8639 23.5682 26.6231 23.2578 27.5002H2C1.60218 27.5002 1.22064 27.6582 0.93934 27.9395C0.658035 28.2208 0.5 28.6024 0.5 29.0002C0.5 29.398 0.658035 29.7795 0.93934 30.0608C1.22064 30.3421 1.60218 30.5002 2 30.5002H23.2578C23.5682 31.3772 24.1428 32.1365 24.9025 32.6735C25.6622 33.2105 26.5697 33.4989 27.5 33.4989C28.4303 33.4989 29.3378 33.2105 30.0975 32.6735C30.8572 32.1365 31.4318 31.3772 31.7422 30.5002H38C38.3978 30.5002 38.7794 30.3421 39.0607 30.0608C39.342 29.7795 39.5 29.398 39.5 29.0002C39.5 28.6024 39.342 28.2208 39.0607 27.9395C38.7794 27.6582 38.3978 27.5002 38 27.5002ZM38 15.5002H16.7422C16.4318 14.6231 15.8572 13.8639 15.0975 13.3268C14.3378 12.7898 13.4303 12.5015 12.5 12.5015C11.5697 12.5015 10.6622 12.7898 9.90248 13.3268C9.14278 13.8639 8.56819 14.6231 8.25781 15.5002H2C1.60218 15.5002 1.22064 15.6582 0.93934 15.9395C0.658035 16.2208 0.5 16.6024 0.5 17.0002C0.5 17.398 0.658035 17.7795 0.93934 18.0608C1.22064 18.3421 1.60218 18.5002 2 18.5002H8.25781C8.56819 19.3772 9.14278 20.1365 9.90248 20.6735C10.6622 21.2105 11.5697 21.4989 12.5 21.4989C13.4303 21.4989 14.3378 21.2105 15.0975 20.6735C15.8572 20.1365 16.4318 19.3772 16.7422 18.5002H38C38.3978 18.5002 38.7794 18.3421 39.0607 18.0608C39.342 17.7795 39.5 17.398 39.5 17.0002C39.5 16.6024 39.342 16.2208 39.0607 15.9395C38.7794 15.6582 38.3978 15.5002 38 15.5002Z" fill="black"/>
</svg>
